<?xml version="1.0" standalone="no"?>
<!DOCTYPE svg PUBLIC "-//W3C//DTD SVG 20010904//EN"
 "http://www.w3.org/TR/2001/REC-SVG-20010904/DTD/svg10.dtd">
<svg version="1.0" xmlns="http://www.w3.org/2000/svg"
 width="840.000000pt" height="517.000000pt" viewBox="0 0 840.000000 517.000000"
 preserveAspectRatio="xMidYMid meet">

<g transform="translate(0.000000,517.000000) scale(0.100000,-0.100000)"
fill="#000000" stroke="none">
<path d="M5995 4729 c-397 -20 -436 -26 -475 -76 -11 -14 -25 -43 -31 -65 -18
-68 0 -99 148 -249 73 -74 133 -139 133 -143 0 -5 -404 -413 -897 -907 l-897
-899 -421 419 c-458 458 -465 464 -575 465 -112 0 -86 22 -718 -608 -528 -527
-584 -586 -602 -634 -41 -108 -15 -203 77 -294 79 -77 128 -101 207 -101 117
1 116 -1 598 481 l438 436 423 -420 c261 -260 436 -427 459 -437 59 -27 118
-31 184 -12 l59 16 1042 1042 1042 1041 144 -141 c118 -116 151 -143 182 -149
92 -17 182 53 199 156 3 19 15 245 27 502 l21 467 -21 43 c-36 75 -72 88 -237
87 -77 -1 -305 -10 -509 -20z"/>
<path d="M5812 2967 l-382 -382 0 -1061 0 -1061 26 -27 27 -26 357 0 357 0 27
26 26 27 0 1416 0 1417 -28 27 -28 27 -382 -383z"/>
<path d="M4740 1895 c-201 -201 -386 -382 -412 -403 l-48 -36 0 -492 0 -492
26 -31 26 -31 359 0 360 0 24 24 c13 13 26 39 30 57 3 19 4 424 3 902 l-3 867
-365 -365z"/>
<path d="M3130 1230 c0 -780 0 -783 48 -809 14 -7 140 -11 375 -11 l355 0 26
31 26 31 -2 446 -3 447 -55 6 c-68 7 -117 23 -195 62 -48 24 -108 77 -310 278
-138 137 -254 249 -258 249 -4 0 -7 -329 -7 -730z"/>
<path d="M2555 1701 c-298 -297 -363 -342 -517 -365 l-48 -7 0 -433 0 -433 26
-27 27 -26 359 0 359 0 24 26 25 27 0 743 c0 409 -1 744 -2 744 -2 0 -115
-112 -253 -249z"/>
</g>
</svg>
